<?xml version="1.0" encoding="utf-8"?>
<!-- Generator: Adobe Illustrator 23.1.0, SVG Export Plug-In . SVG Version: 6.00 Build 0)  -->
<svg version="1.1" xmlns="http://www.w3.org/2000/svg" xmlns:xlink="http://www.w3.org/1999/xlink" x="0px" y="0px"
	 viewBox="0 0 512 512" style="enable-background:new 0 0 512 512;" xml:space="preserve">
<style type="text/css">
	.st0{fill:#29ABE2;}
	.st1{fill:none;}
</style>
<g id="Слой_1">
	<g>
		<path class="st0" d="M6.01,151.04v11.51c0,2.33,1.88,4.21,4.21,4.21h47.21c2.33,0,4.21,1.88,4.21,4.21v140.51
			c0,2.33,1.88,4.21,4.21,4.21h13.92c2.33,0,4.21-1.88,4.21-4.21V170.97c0-2.33,1.88-4.21,4.21-4.21h47.45
			c2.33,0,4.21-1.88,4.21-4.21v0c0-8.68-7.04-15.72-15.72-15.72H10.22C7.89,146.83,6.01,148.71,6.01,151.04z"/>
		<path class="st0" d="M224.85,207.13c-10.67-11.02-24.42-16.53-41.23-16.53c-15.13,0-27.96,4.53-38.47,13.59
			c-12.6,10.91-18.89,27.69-18.89,50.34c0,20.65,5.27,36.47,15.83,47.45s24.4,16.47,41.53,16.47c10.67,0,20.52-2.49,29.54-7.48
			c9.02-4.99,15.9-12,20.62-21.02c4.72-9.03,7.08-21.41,7.08-37.15C240.86,233.37,235.52,218.15,224.85,207.13z M209.3,289.66
			c-6.83,7.83-15.4,11.75-25.68,11.75c-10.37,0-18.97-3.9-25.81-11.7c-6.83-7.79-10.25-19.52-10.25-35.18
			c0-15.67,3.42-27.38,10.25-35.13c6.84-7.76,15.44-11.64,25.81-11.64c10.21,0,18.75,3.9,25.62,11.69
			c6.88,7.8,10.31,19.26,10.31,34.39C219.55,269.89,216.14,281.83,209.3,289.66z"/>
		<path class="st0" d="M343.14,166.06v37.41c0,1.28-1.58,1.87-2.43,0.91c-3.21-3.63-7.08-6.67-11.62-9.12
			c-5.76-3.11-12.32-4.67-19.7-4.67c-10.06,0-19.15,2.65-27.29,7.95c-8.14,5.3-14.25,12.92-18.32,22.86
			c-4.07,9.95-6.1,21.02-6.1,33.23c0,12.52,2.24,23.6,6.74,33.23c4.49,9.64,10.82,17.15,19,22.52c8.18,5.37,17.14,8.06,26.9,8.06
			c13.52,0,24.1-4.89,31.73-14.69c0.81-1.04,2.48-0.47,2.48,0.85v9.69c0,0.77,0.62,1.39,1.39,1.39h16.45c0.77,0,1.39-0.62,1.39-1.39
			V148.22c0-0.77-0.62-1.39-1.39-1.39h0C351.75,146.83,343.14,155.44,343.14,166.06z M335.37,290.29
			c-6.34,7.41-14.04,11.12-23.1,11.12c-8.98,0-16.77-3.88-23.38-11.64c-6.6-7.75-9.9-19.46-9.9-35.13c0-16.2,3.09-28.06,9.27-35.59
			c6.18-7.52,13.88-11.29,23.09-11.29c9.45,0,17.4,3.92,23.85,11.75c6.45,7.83,9.67,20.12,9.67,36.86
			C344.87,271.57,341.7,282.88,335.37,290.29z"/>
		<path class="st0" d="M501.45,251h-17.71c-1,0-1.81,0.81-1.8,1.81c0,0.34,0,0.68,0,1.03c0,16.05-3.42,27.99-10.25,35.82
			c-6.84,7.83-15.4,11.75-25.69,11.75c-10.37,0-18.97-3.9-25.8-11.7c-6.84-7.79-10.25-19.52-10.25-35.18
			c0-15.67,3.41-27.38,10.25-35.13c6.83-7.76,15.43-11.64,25.8-11.64c3.41,0,6.65,0.44,9.69,1.31c1.16,0.33,2.31-0.52,2.31-1.72
			v-14.2c0-0.88-0.64-1.65-1.51-1.78c-3.35-0.51-6.85-0.77-10.49-0.77c-15.13,0-27.95,4.53-38.47,13.59
			c-12.59,10.91-18.89,27.69-18.89,50.34c0,20.65,5.28,36.47,15.84,47.45s24.4,16.47,41.52,16.47c10.67,0,20.52-2.49,29.54-7.48
			c9.03-4.99,15.9-12,20.62-21.02c4.72-9.03,7.09-21.41,7.09-37.15c0-0.01,0-0.01,0-0.02C503.25,251.79,502.44,251,501.45,251z"/>
	</g>
	<rect x="659.61" y="27.26" class="st1" width="0.78" height="6.26"/>
	<path class="st1" d="M471.63,219.45c6.43,7.3,9.86,17.82,10.27,31.55H458v-41.17C463.1,211.73,467.65,214.94,471.63,219.45z"/>
	<path class="st0" d="M499.59,211.59c2.16,1.76,2.49,4.95,0.72,7.11l-43.05,52.76l-5.65,6.93c-1.76,2.16-4.95,2.49-7.11,0.72
		l-6.93-5.66l-22.2-18.12c-2.16-1.76-2.49-4.95-0.72-7.11l2.46-3.02c1.76-2.16,4.95-2.49,7.11-0.72l18.29,14.93
		c2.16,1.76,5.35,1.44,7.11-0.72l39.86-48.85c1.76-2.16,4.95-2.48,7.11-0.72L499.59,211.59z"/>
</g>
<g id="Слой_2">
</g>
</svg>
